<svg width="48" height="48" viewBox="0 0 48 48" fill="none" xmlns="http://www.w3.org/2000/svg">
  <rect width="48" height="48" rx="12" fill="#1A365D"/>
  <path d="M24 12C17.3726 12 12 17.3726 12 24C12 30.6274 17.3726 36 24 36C30.6274 36 36 30.6274 36 24C36 17.3726 30.6274 12 24 12ZM24 32C19.5817 32 16 28.4183 16 24C16 19.5817 19.5817 16 24 16C28.4183 16 32 19.5817 32 24C32 28.4183 28.4183 32 24 32Z" fill="#48BB78"/>
  <path d="M24 20C21.7909 20 20 21.7909 20 24C20 26.2091 21.7909 28 24 28C26.2091 28 28 26.2091 28 24C28 21.7909 26.2091 20 24 20Z" fill="#48BB78"/>
  <path d="M24 16L28 12" stroke="#48BB78" stroke-width="2" stroke-linecap="round"/>
  <path d="M24 36L28 32" stroke="#48BB78" stroke-width="2" stroke-linecap="round"/>
  <path d="M12 24L16 20" stroke="#48BB78" stroke-width="2" stroke-linecap="round"/>
  <path d="M32 24L36 20" stroke="#48BB78" stroke-width="2" stroke-linecap="round"/>
</svg> 