<?xml version="1.0" encoding="UTF-8"?>
<svg width="512" height="512" viewBox="0 0 512 512" fill="none" xmlns="http://www.w3.org/2000/svg">
  <!-- Background Circle -->
  <circle cx="256" cy="256" r="240" fill="#1E40AF" />
  
  <!-- Book Icon -->
  <path d="M256 96C256 96 192 96 192 160V352C192 352 256 352 256 352C256 352 320 352 320 288V160C320 96 256 96 256 96Z" fill="#60A5FA" />
  
  <!-- Pages -->
  <path d="M256 96V352" stroke="#BFDBFE" stroke-width="16" stroke-linecap="round" />
  <path d="M192 160H320" stroke="#BFDBFE" stroke-width="16" stroke-linecap="round" />
  <path d="M192 224H320" stroke="#BFDBFE" stroke-width="16" stroke-linecap="round" />
  <path d="M192 288H320" stroke="#BFDBFE" stroke-width="16" stroke-linecap="round" />
  
  <!-- Star -->
  <path d="M256 192L272 224L304 224L280 248L296 280L256 264L216 280L232 248L208 224L240 224L256 192Z" fill="#FCD34D" />
</svg> 